<svg id="Capa_1" enable-background="new 0 0 512 512" height="512" viewBox="0 0 512 512" width="512" xmlns="http://www.w3.org/2000/svg"><g><g><path d="m345.809 365.452s73.053 29.353 73.053 139.048h-325.725c0-109.695 73.053-139.048 73.053-139.048z" fill="#5bd6fd"/><path d="m190.19 365.452h-24s-73.053 29.353-73.053 139.048h24c0-109.695 73.053-139.048 73.053-139.048z" fill="#00c4fc"/><g><path d="m27.004 34.118h31.385v145.113h-31.385z" fill="#ffa2e7"/></g><g><path d="m453.611 34.118h31.385v145.113h-31.385z" fill="#ffa2e7"/></g><circle cx="74.133" cy="193.293" fill="#f9f097" r="57.731"/><circle cx="437.866" cy="193.293" fill="#f9f097" r="57.731"/><circle cx="256" cy="193.293" fill="#5bd6fd" r="181.867"/><path d="m104.133 193.293c0-95.391 73.443-173.618 166.867-181.247-4.948-.404-9.948-.62-15-.62-100.442 0-181.867 81.424-181.867 181.867 0 100.442 81.425 181.867 181.867 181.867 5.052 0 10.053-.216 15-.62-93.424-7.629-166.867-85.856-166.867-181.247z" fill="#00c4fc"/><path d="m125.314 141.675v193.467c0 29.664 24.047 53.711 53.711 53.711h153.95c29.664 0 53.711-24.047 53.711-53.711v-193.467z" fill="#77718c"/><path d="m125.314 189.072c5.134 1.764 10.634 2.736 16.359 2.736h228.654c5.725 0 11.225-.972 16.359-2.736v-47.396h-261.372z" fill="#5c586f"/><path d="m370.327 107.814h-228.654c-11.31 0-20.479 9.169-20.479 20.479v13.035c0 11.31 9.169 20.479 20.479 20.479h228.654c11.31 0 20.479-9.169 20.479-20.479v-13.035c0-11.31-9.169-20.479-20.479-20.479z" fill="#f9f097"/><g><g><ellipse cx="256.027" cy="236.179" fill="#423e4f" rx="19.443" ry="21.757"/></g></g><path d="m27.003 88.507c4.987 1.441 10.248 2.229 15.692 2.229 5.445 0 10.706-.788 15.693-2.229v-54.389h-31.385z" fill="#ff8ce2"/><circle cx="42.696" cy="34.118" fill="#f9f097" r="26.618"/><path d="m453.611 88.507c4.987 1.441 10.248 2.229 15.692 2.229s10.706-.788 15.692-2.229v-54.389h-31.385v54.389z" fill="#ff8ce2"/><circle cx="469.304" cy="34.118" fill="#f9f097" r="26.618"/><path d="m295.693 435.148h-79.333c-17.932 0-32.469 14.537-32.469 32.469v36.883h144.271v-36.882c0-17.933-14.537-32.47-32.469-32.47z" fill="#ffa2e7"/><path d="m246.36 435.148h-30c-17.932 0-32.469 14.537-32.469 32.469v36.883h30v-36.882c0-17.933 14.537-32.47 32.469-32.47z" fill="#ff8ce2"/><circle cx="256" cy="61.642" fill="#f9f097" r="19.47"/></g><g><path d="m256.027 206.922c-14.856 0-26.943 13.125-26.943 29.256 0 16.133 12.086 29.257 26.943 29.257s26.943-13.125 26.943-29.257c0-16.131-12.087-29.256-26.943-29.256zm0 43.514c-6.585 0-11.943-6.396-11.943-14.257s5.358-14.256 11.943-14.256c6.586 0 11.943 6.396 11.943 14.256 0 7.861-5.357 14.257-11.943 14.257z"/><path d="m182.487 199.365c-13.121 0-23.796 10.675-23.796 23.796 0 4.142 3.358 7.5 7.5 7.5s7.5-3.358 7.5-7.5c0-4.851 3.946-8.796 8.796-8.796s8.797 3.946 8.797 8.796c0 4.142 3.358 7.5 7.5 7.5 4.143 0 7.5-3.358 7.5-7.5-.001-13.121-10.675-23.796-23.797-23.796z"/><path d="m328.162 199.365c-13.121 0-23.796 10.675-23.796 23.796 0 4.142 3.358 7.5 7.5 7.5s7.5-3.358 7.5-7.5c0-4.851 3.946-8.796 8.796-8.796s8.797 3.946 8.797 8.796c0 4.142 3.358 7.5 7.5 7.5 4.143 0 7.5-3.358 7.5-7.5 0-13.121-10.675-23.796-23.797-23.796z"/><path d="m229.03 61.643c0 14.871 12.099 26.97 26.97 26.97s26.97-12.099 26.97-26.97c0-14.872-12.099-26.97-26.97-26.97-14.871-.001-26.97 12.098-26.97 26.97zm38.94 0c0 6.6-5.37 11.97-11.97 11.97-6.601 0-11.97-5.37-11.97-11.97 0-6.601 5.37-11.97 11.97-11.97 6.6-.001 11.97 5.369 11.97 11.97z"/><path d="m19.503 59.111v98.6c-29.009 44.388 4.908 103.973 58.609 100.679 8.652 23.662 22.051 45.521 39.701 64.348v12.405c0 16.5 6.575 31.486 17.228 42.506-9.131 8.306-17.209 17.979-24.044 28.9-2.198 3.511-1.133 8.139 2.378 10.336 3.512 2.197 8.14 1.133 10.337-2.378 6.529-10.433 14.288-19.598 23.108-27.307 9.774 6.08 20.868 9.154 32.204 9.154h153.95c11.328 0 22.42-3.069 32.199-9.151 31.398 27.535 44.713 67.849 46.068 109.797h-37.635v-40.928c0-4.142-3.357-7.5-7.5-7.5-4.142 0-7.5 3.358-7.5 7.5v40.928h-22.945v-29.382c0-22.039-17.93-39.969-39.969-39.969h-79.333c-22.039 0-39.97 17.93-39.97 39.969v29.382h-22.999v-40.928c0-4.142-3.357-7.5-7.5-7.5-4.142 0-7.5 3.358-7.5 7.5v40.928h-37.633c.657-20.121 3.976-38.692 9.892-55.297 1.391-3.902-.646-8.192-4.548-9.582-3.901-1.39-8.191.646-9.582 4.548-7.222 20.27-10.884 43.092-10.884 67.832 0 4.142 3.358 7.5 7.5 7.5h325.726c4.143 0 7.5-3.358 7.5-7.5 0-33.191-6.512-62.61-19.355-87.438-7.899-15.27-17.984-28.492-30.032-39.431 10.643-11.018 17.211-25.996 17.211-42.488v-12.404c17.65-18.827 31.049-40.687 39.701-64.349 53.561 3.285 87.719-56.138 58.609-100.679v-98.601c6.714-6.235 10.926-15.129 10.926-24.993.001-18.813-15.304-34.118-34.117-34.118s-34.118 15.305-34.118 34.118c0 9.863 4.211 18.758 10.926 24.993v69.491c-4.705-.597-8.404-.64-12.245-.403-11.411-31.22-30.997-59.22-57.376-81-3.194-2.638-7.921-2.186-10.559 1.008-2.637 3.194-2.186 7.921 1.008 10.558 72.507 59.866 84.667 166.515 27.246 240.882v-143.722c2.611-4.252 4.12-9.251 4.12-14.597v-13.034c0-15.428-12.551-27.979-27.979-27.979h-228.654c-15.428 0-27.979 12.552-27.979 27.979v13.034c0 5.346 1.509 10.344 4.12 14.597v143.723c-11.802-15.285-21.115-32.536-27.432-51.697-37.016-112.225 46.771-229.024 165.618-229.024 30.55 0 60.607 8.015 86.921 23.177 3.589 2.068 8.175.834 10.243-2.754 2.068-3.589.835-8.175-2.754-10.243-101.408-58.432-231.762-11.172-272.249 99.093-3.92-.243-7.623-.188-12.272.401v-69.49c6.714-6.235 10.926-15.129 10.926-24.993 0-18.813-15.306-34.118-34.119-34.118s-34.119 15.305-34.119 34.118c0 9.863 4.212 18.758 10.926 24.993zm171.888 408.507c0-13.768 11.201-24.969 24.97-24.969h79.333c13.768 0 24.969 11.201 24.969 24.969v29.382h-129.272zm277.913-452.618c10.542 0 19.118 8.576 19.118 19.118 0 6.446-3.238 12.41-8.65 15.979-5.602 3.686-11.477 3.139-10.468 3.139-.919-.108-5.766.142-10.861-3.404-4.982-3.454-8.257-9.206-8.257-15.714 0-10.542 8.576-19.118 19.118-19.118zm-8.192 117.349v-65.1c5.478 1.345 11.176 1.276 16.385 0v74.26c-5.065-3.864-10.682-6.978-16.385-9.16zm-22.492 10.718c27.224.404 49.478 22.685 49.478 50.226 0 27.439-22.116 49.81-49.458 50.225 8.989-32.823 8.919-67.875-.02-100.451zm-59.434 192.075c0 25.419-20.654 46.211-46.211 46.211-165.764-.054-155.848.287-161.011-.54-22.142-3.409-39.15-22.591-39.15-45.671 0-7.472 0-158.867 0-167.258 3.293 1.098 6.133 1.356 8.859 1.423 241.292-.001 231.14.694 237.513-1.423v151.871zm-250.492-206.848c0-7.157 5.823-12.979 12.979-12.979h228.654c7.157 0 12.979 5.822 12.979 12.979v13.034c0 7.155-5.896 12.979-12.979 12.979-238.318-.258-230.665 1.239-235.778-2.143-3.6-2.392-5.855-6.436-5.855-10.837zm-60.314 90.746c1.126 8.297 2.787 16.471 4.98 24.478-27.342-.415-49.458-22.786-49.458-50.225 0-27.39 22.087-49.819 49.478-50.226-5.545 20.19-8.47 50.638-5 75.973zm-17.491-151.791v65.1c-5.624 2.149-11.241 5.24-16.386 9.161v-74.26c5.208 1.278 10.943 1.33 16.386-.001zm-8.193-52.249c10.542 0 19.119 8.576 19.119 19.118 0 15.366-17.372 24.483-29.982 15.713-4.981-3.454-8.255-9.206-8.255-15.713-.001-10.542 8.576-19.118 19.118-19.118z"/></g></g></svg>