<svg id="Capa_1" enable-background="new 0 0 512 512" height="512" viewBox="0 0 512 512" width="512" xmlns="http://www.w3.org/2000/svg"><g><g><path d="m453.582 258.942s13.72 121.221-90.994 173.172h-213.176c-104.714-51.952-90.994-173.172-90.994-173.172z" fill="#f9f097"/><path d="m88.418 258.941h-30s-13.72 121.221 90.994 173.172h30c-104.714-51.951-90.994-173.172-90.994-173.172z" fill="#fccb88"/><circle cx="75.677" cy="234.377" fill="#ffcabd" r="45.232"/><circle cx="436.323" cy="234.377" fill="#ffcabd" r="45.232"/><path d="m327.717 378.886s63.374 36.257 63.374 125.614h-270.182c0-89.357 63.374-125.614 63.374-125.614z" fill="#ffa2e7"/><path d="m207.283 378.886h-23s-63.374 36.257-63.374 125.614h23c0-89.357 63.374-125.614 63.374-125.614z" fill="#ff8ce2"/><path d="m440.697 208.683c0 101.842-82.854 184.696-184.697 184.696-101.842 0-184.697-82.854-184.697-184.696z" fill="#ffdcce"/><path d="m101.304 208.684h-30c0 101.842 82.854 184.696 184.697 184.696 5.05 0 10.051-.212 15-.612-94.854-7.66-169.697-87.293-169.697-184.084z" fill="#ffcabd"/><path d="m256 21.016c-103.651 0-187.673 84.021-187.673 187.663 0 4.314.146 8.594.432 12.836 1.959 28.976 26.087 51.456 55.129 51.456 23.287 0 46.138-6.392 66.056-18.481 20.294-12.317 43.175-18.481 66.055-18.481s45.761 6.164 66.055 18.481c9.959 6.045 20.651 10.662 31.769 13.774 11.108 3.112 22.643 4.707 34.286 4.707 29.042 0 53.17-22.48 55.129-51.456.287-4.241.432-8.521.432-12.836.003-103.642-84.019-187.663-187.67-187.663z" fill="#ffa2e7"/><path d="m98.327 208.679c0-98.592 76.036-179.423 172.673-187.065-4.949-.392-9.95-.597-15-.597-103.651 0-187.673 84.021-187.673 187.663 0 4.314.146 8.594.432 12.835 1.347 19.928 13.18 36.783 29.885 45.366-.21-14.177-.317-54.508-.317-58.202z" fill="#ff8ce2"/><path d="m223.319 73.932c4.142-22.98 8.433-46.078 8.433-46.078 2.071-11.773 12.297-20.354 24.248-20.354s22.177 8.581 24.248 20.354l-24.248 62.977z" fill="#f9f097"/><path d="m289.474 78.371c3.567 19.848 6.808 38.478 6.808 40.648 0 22.246-18.035 40.281-40.281 40.281-17.44 0-32.294-11.089-37.893-26.597l37.892-41.872z" fill="#e8e8e8"/><path d="m256 428.945c-23.501-22.968-62.43 16.91-1.154 49.738.72.386 1.589.386 2.309 0 61.275-32.828 22.346-72.706-1.155-49.738z" fill="#f9f097"/><path d="m289.474 78.371c-10.028 17.252-33.92 50.329-71.367 54.333-1.546-4.281-2.388-8.879-2.388-13.685 0-2.339 3.736-23.654 7.6-45.087 37.764-2.131 56.929-46.078 56.929-46.078s4.866 26.18 9.226 50.517z" fill="#b08bd7"/></g><g><path d="m156.911 222.078c0-6.61 5.378-11.988 11.988-11.988s11.988 5.378 11.988 11.988c0 4.142 3.358 7.5 7.5 7.5s7.5-3.358 7.5-7.5c0-14.882-12.107-26.988-26.988-26.988s-26.988 12.107-26.988 26.988c0 4.142 3.358 7.5 7.5 7.5 4.143 0 7.5-3.358 7.5-7.5z"/><path d="m323.614 229.578c4.142 0 7.5-3.358 7.5-7.5 0-6.61 5.378-11.988 11.987-11.988 6.61 0 11.988 5.378 11.988 11.988 0 4.142 3.357 7.5 7.5 7.5 4.142 0 7.5-3.358 7.5-7.5 0-14.882-12.107-26.988-26.989-26.988-14.881 0-26.988 12.107-26.988 26.988.001 4.142 3.359 7.5 7.502 7.5z"/><path d="m282.326 268.611c2.721-3.123 2.396-7.86-.727-10.582-3.123-2.721-7.86-2.396-10.582.727-7.938 9.11-22.074 9.135-30.035 0-2.722-3.123-7.46-3.448-10.582-.727-3.123 2.722-3.448 7.459-.727 10.582 13.933 15.987 38.736 15.971 52.653 0z"/><path d="m256 419.39c-32.047-20.628-72.329 29.67-4.696 65.904 2.947 1.578 6.457 1.573 9.393 0 67.596-36.214 27.375-86.546-4.697-65.904zm0 51.368c-46.325-26.205-20.979-51.828-5.242-36.45 2.915 2.849 7.57 2.848 10.484 0 15.771-15.41 41.063 10.254-5.242 36.45z"/><path d="m50.478 280.685c.668 18.272 3.898 44.088 14.708 70.81 13.502 33.375 35.347 59.718 64.986 78.403-9.331 18.903-16.763 43.66-16.763 74.601 0 4.142 3.358 7.5 7.5 7.5h270.185c4.142 0 7.5-3.358 7.5-7.5 0-30.942-7.432-55.698-16.763-74.601 51.533-32.488 77.457-88.037 79.693-149.213 16.391-8.954 27.535-26.355 27.535-46.311 0-24.127-16.633-45.108-39.534-51.039-11.199-86.003-78.613-155.583-166.06-167.889-12.548-20.707-42.553-20.493-54.957.026-33.848 4.779-65.89 18.402-92.892 39.585-3.259 2.557-3.828 7.272-1.271 10.53 2.557 3.259 7.272 3.828 10.53 1.271 23.014-18.055 49.99-30.181 78.581-35.405-2.779 15.044-15.237 82.178-15.237 87.56 0 5.439.911 10.91 2.834 16.232v.001c6.813 18.87 24.876 31.548 44.947 31.548 26.347 0 47.782-21.435 47.782-47.782 0-5.333-14.229-82.102-15.238-87.564 91.13 16.575 154.13 100.155 147.174 190.008-1.848 23.952-21.911 44.01-47.606 44.01-21.998 0-43.499-6.064-62.164-17.393-42.951-26.065-96.856-26.122-139.895 0-22.048 13.384-48.872 18.96-66.828 17.165-22.922-2.247-41.404-20.868-42.983-44.235-3.287-48.53 12.942-97.289 47.442-134.595 2.812-3.042 2.627-7.787-.415-10.599-3.041-2.813-7.786-2.627-10.598.414-27.644 29.893-45.006 67.231-50.194 107.111-22.902 5.93-39.535 26.911-39.535 51.038 0 19.958 11.145 37.359 27.536 46.313zm226.006-231.892c2.281 12.442 3.553 19.477 5.112 28.132-13.36 22.087-32.746 41.812-57.967 47.286-.923-5.8-.864-3.95 6.082-43.453 19.289-3.183 35.267-16.086 46.773-31.965zm-4.162-21.785c-3.742 7.321-17.357 31.019-39.716 37.719 6.771-37.257 6.43-36.332 7.742-39.529 6.302-14.305 27.12-13.401 31.974 1.81zm-16.322 124.789c-10.637 0-20.451-5.188-26.521-13.514 23.868-5.951 41.308-21.755 55.877-40.209 2.813 16.1 3.348 20.107 3.426 21.083-.077 18.01-14.753 32.64-32.782 32.64zm-118.549 264.957c-26.566-16.961-46.178-40.773-58.36-70.884-8.873-21.933-12.238-43.286-13.32-59.692 4.463.848 9.565 1.174 14.686.711 17.418 38.894 48.088 72.593 89.013 93.372-11.621 9.411-22.946 21.955-32.019 36.493zm210.199 80.246v-35.201c0-4.142-3.358-7.5-7.5-7.5s-7.5 3.358-7.5 7.5v35.201h-153.3v-35.201c0-4.142-3.358-7.5-7.5-7.5s-7.5 3.358-7.5 7.5v35.201h-35.787c1.257-30.177 10.238-58.055 28.347-82.081 11.288-14.974 22.875-23.943 28.16-27.603 45.386 18.097 96.547 18.071 141.862 0 5.523 3.827 10.756 8.385 15.554 13.127 16.663 16.639 38.861 47.737 40.948 96.557zm126.408-262.626c0 20.577-16.536 37.182-36.623 37.705 3.182-9.078 5.674-18.462 7.378-27.424 5.73-12.041 6.363-22.645 6.363-35.979 0-3.039-.072-6.062-.21-9.07 13.647 5.781 23.092 19.384 23.092 34.768zm-280.222 26.524c38.174-23.175 86.1-23.203 124.33 0 20.06 12.175 42.733 18.718 65.345 19.491 13.544.462 25.99-1.768 38.49-9.773-7.09 18.858-17.171 36.152-30.062 51.567-2.664 3.185-2.229 7.921.95 10.573 3.177 2.657 7.907 2.235 10.565-.942 11.613-13.888 21.255-29.632 28.094-44.925 4.776.433 9.878.203 14.683-.711-3.517 53.322-26.266 101.581-71.68 130.576-8.373-13.42-19.426-26.292-32.011-36.488 13.445-6.807 27.044-15.798 39.27-26.411 3.333-2.893 3.481-8.06.216-11.135-2.769-2.606-7.117-2.742-10.05-.196-56.474 49.043-138.391 57.736-204.437 19.617-36.484-21.187-64.003-54.791-77.537-91.525 9.164 5.868 19.74 9.259 31.073 9.783 22.373.971 49.503-5.385 72.761-19.501zm-132.8-61.293c-.139 3.014-.21 6.037-.21 9.07 0 13.309.634 23.939 6.362 35.979 1.694 8.878 4.192 18.335 7.378 27.425-20.08-.521-36.623-17.122-36.623-37.705-.001-15.384 9.444-28.988 23.093-34.769z"/></g></g></svg>