<svg id="Capa_1" enable-background="new 0 0 512 512" height="512" viewBox="0 0 512 512" width="512" xmlns="http://www.w3.org/2000/svg"><g><g><path d="m364.399 402.812c9.059-4.593 20.093-1.9 26.061 6.319 4.22 5.813 8.306 12.179 12.055 19.102 5.543 10.234 1.588 23.028-8.794 28.288l-9.457 4.791h-32.934v-51.875z" fill="#f9f097"/><path d="m147.601 402.812c-9.059-4.593-20.093-1.9-26.061 6.319-4.22 5.813-8.306 12.179-12.055 19.102-5.543 10.234-1.588 23.028 8.794 28.288l9.457 4.791h32.934v-51.875z" fill="#f9f097"/><path d="m391.608 504.497h-271.216c0-16.065 2.847-30.459 7.343-43.184 7.977-22.563 21.175-39.865 32.934-51.875 13.328-13.61 24.826-20.42 24.826-20.42h141.01s65.103 38.607 65.103 115.479z" fill="#c7c5cb"/><path d="m190.669 409.438c13.328-13.61 24.826-20.42 24.826-20.42h-30s-11.498 6.81-24.826 20.42c-11.759 12.011-24.957 29.313-32.934 51.875-4.496 12.725-7.343 27.119-7.343 43.184h30c0-16.065 2.847-30.459 7.343-43.184 7.977-22.562 21.175-39.864 32.934-51.875z" fill="#b2b0bc"/><circle cx="256" cy="213.607" fill="#da9d81" r="189.008"/><path d="m96.992 213.607c0-99.337 76.635-180.77 174.008-188.416-4.949-.389-9.951-.592-15-.592-104.386 0-189.008 84.622-189.008 189.008s84.622 189.008 189.008 189.008c5.049 0 10.051-.203 15-.592-97.373-7.646-174.008-89.079-174.008-188.416z" fill="#c7856a"/><g fill="#e8e8e8"><path d="m176.409 178.399h-95.83c-12.276 0-22.386 9.548-23.204 21.797-.296 4.432-.446 8.904-.446 13.41s.15 8.978.446 13.41c.818 12.249 10.928 21.797 23.204 21.797h95.83z"/><path d="m335.591 178.399h95.83c12.276 0 22.386 9.548 23.204 21.797.296 4.432.446 8.904.446 13.41s-.15 8.978-.446 13.41c-.818 12.249-10.928 21.797-23.204 21.797h-95.83z"/><circle cx="256" cy="267.692" r="85.057"/></g><circle cx="176.409" cy="210.814" fill="#c7c5cb" r="56.019"/><circle cx="335.591" cy="210.814" fill="#c7c5cb" r="56.019"/><g><path d="m397.112 73.329c8.037 8.081 7.678 21.255-.679 29.005l-116.492 108.043c-6.75 6.257-15.35 9.395-23.941 9.395s-17.191-3.139-23.941-9.395l-116.493-108.043c-8.356-7.75-8.716-20.924-.679-29.005 7.939-7.982 16.548-15.298 25.737-21.855 7.796-5.563 18.442-4.841 25.464 1.672l89.912 83.397 89.912-83.397c7.022-6.513 17.668-7.235 25.464-1.672 9.188 6.556 17.798 13.873 25.736 21.855z" fill="#77718c"/></g><path d="m87.375 227.016c-.296-4.432-.446-8.904-.446-13.41 0-4.505.15-8.978.446-13.41.818-12.249 10.928-21.797 23.204-21.797h-30c-12.276 0-22.386 9.548-23.204 21.797-.296 4.432-.446 8.904-.446 13.41s.15 8.978.446 13.41c.818 12.249 10.928 21.797 23.204 21.797h30c-12.276 0-22.387-9.548-23.204-21.797z" fill="#dadad8"/><path d="m267.606 7.502h-23.212c-10.792 0-19.541 8.749-19.541 19.541v31.094c0 10.792 8.749 19.541 19.541 19.541h23.212c10.792 0 19.541-8.749 19.541-19.541v-31.093c0-10.793-8.749-19.542-19.541-19.542z" fill="#c7c5cb"/><path d="m296.518 221.07v6.096c0 11.196-4.537 21.325-11.87 28.659-7.323 7.333-17.463 11.87-28.649 11.87-22.382 0-40.518-18.147-40.518-40.528v-6.096c10.844 9.254 25.017 16.98 40.518 16.98s29.676-7.727 40.519-16.981z" fill="#fccb88"/><path d="m296.518 218.917v2.153c-10.844 9.254-25.017 16.98-40.518 16.98s-29.675-7.725-40.518-16.98v-2.153c0-22.372 18.137-40.518 40.518-40.518s40.518 18.147 40.518 40.518z" fill="#f9f097"/><path d="m267.606 383.716h-23.212c-10.792 0-19.541 8.749-19.541 19.541v31.095c0 10.792 8.749 19.541 19.541 19.541h23.212c10.792 0 19.541-8.749 19.541-19.541v-31.095c0-10.792-8.749-19.541-19.541-19.541z" fill="#77718c"/></g><g><path d="m176.408 227.071c4.142 0 7.5-3.358 7.5-7.5v-17.548c0-4.142-3.358-7.5-7.5-7.5s-7.5 3.358-7.5 7.5v17.548c0 4.142 3.358 7.5 7.5 7.5z"/><path d="m335.591 194.523c-4.142 0-7.5 3.358-7.5 7.5v17.549c0 4.142 3.358 7.5 7.5 7.5s7.5-3.358 7.5-7.5v-17.549c0-4.142-3.358-7.5-7.5-7.5z"/><path d="m120.392 511.997c56.481.002 196.145.006 271.216 0 4.142 0 7.5-3.358 7.5-7.5 0-13.467-1.95-26.669-5.765-39.377 1.609-1.165 13.523-4.61 17.895-18.606 2.29-7.331 1.534-15.092-2.128-21.854-3.69-6.814-7.923-13.522-12.581-19.937-8.184-11.271-23.122-14.889-35.522-8.602l-8.254 4.185c-4.076-3.895-7.893-7.147-11.181-9.755 17.595-8.523 33.928-19.698 48.485-33.287 3.028-2.827 3.191-7.573.364-10.6-2.827-3.029-7.573-3.191-10.601-.365-25.541 23.843-56.151 38.861-87.85 45.224-4.299-9.014-13.598-15.309-24.365-15.309-24.886-.012-25.145-.181-28.75.572-8.356 1.728-15.281 7.306-18.827 14.737-69.788-14.036-124.164-67.388-140.484-135.229.807.027 11.78.013 52.554.018 8.976 8.743 20.135 14.392 31.496 16.72.586 10.269 2.912 20.584 6.993 30.31 38.468 91.783 172.288 65.822 177.816-30.309 11.801-2.443 22.756-8.206 31.497-16.721 40.424-.005 51.745.01 52.545-.018-6.017 24.871-17.359 48.429-33.159 68.72-2.545 3.268-1.958 7.98 1.31 10.525 3.269 2.544 7.98 1.958 10.525-1.31 19.011-24.415 32.04-53.211 37.843-83.467 7.423-5.198 12.5-13.597 13.144-23.249.616-9.235.616-18.582 0-27.819-.644-9.653-5.722-18.053-13.147-23.251-5.914-30.845-19.285-59.993-38.866-84.726 1.345-8.818-1.468-17.449-7.665-23.68-8.23-8.275-17.213-15.903-26.698-22.671-7.289-5.201-16.482-6.383-24.636-3.746-17.916-9.931-37.114-16.928-57.191-20.851-2.836-11.894-13.547-20.769-26.299-20.769h-23.212c-12.752 0-23.463 8.875-26.299 20.771-20.076 3.923-39.275 10.919-57.191 20.851-8.155-2.638-17.348-1.456-24.635 3.745-9.487 6.769-18.47 14.397-26.699 22.671-6.206 6.239-9.007 14.871-7.665 23.68-19.581 24.733-32.953 53.881-38.866 84.726-7.425 5.198-12.503 13.598-13.147 23.251-.616 9.235-.616 18.582 0 27.819.644 9.642 5.71 18.034 13.121 23.233 11.834 61.877 52.439 113.24 107.403 139.815-3.287 2.607-7.097 5.852-11.171 9.744l-8.251-4.184c-12.4-6.287-27.338-2.669-35.521 8.602-4.659 6.416-8.892 13.124-12.582 19.938-3.662 6.761-4.417 14.523-2.128 21.854 4.349 13.921 16.314 17.469 17.858 18.587-3.8 12.696-5.728 25.917-5.728 39.395-.001 4.141 3.357 7.499 7.499 7.499zm-41.227-270.754c-7.491-.651-13.779-6.808-14.307-14.728-.572-8.568-.572-17.248 0-25.821.418-6.269 4.499-11.534 9.909-13.67 4.435-1.781 6.177-.94 43.202-1.126-7.44 17.386-6.823 38.023 2.716 55.414-42.248-.028-40.065.063-41.52-.069zm163.501-52.523c21.272-9.423 45.361 5.65 46.31 28.824-21.699 17.005-43.638 17.486-65.951 0 .346-8.393 3.879-16.472 10.149-22.462 1.028-.986 6.188-4.901 9.492-6.362zm58.104 55.84c2.232-5.752 3.248-11.681 3.248-17.396-.486-3.801 1.54-13.368-3.328-25.804l41.598-38.581c33.344 4.598 52.223 41.685 35.939 71.172-15.523 28.491-54.445 34.378-77.457 10.609zm-122.026 29.729c14.545-.534 28.893-6.026 40.326-16.42 18.918 22.822 54.466 23.355 73.856-.004 10.69 9.744 24.922 15.858 40.33 16.424-7.63 90.012-146.273 97.196-154.512 0zm-50.38-70.227c2.988-21.146 19.828-38.311 41.347-41.283 10.287 9.541 34.9 32.369 41.598 38.581-2.752 7.024-3.286 12.333-3.328 19.709.237 3.7-1.058 12.328 3.259 23.481-31.773 32.868-89.565 6.652-82.876-40.488zm159.307 32.439c-3.003 10.119-10.66 18.245-20.524 21.773-17.575 6.286-37.262-3.252-42.818-21.772 20.779 12.03 42.371 12.084 63.342-.001zm103.644 4.811c9.477-17.278 10.218-37.885 2.716-55.414 26.981.144 36.549-.343 41.087.462 6.535 1.6 11.555 7.315 12.024 14.334.572 8.568.572 17.248 0 25.821-.554 8.297-7.466 14.797-15.721 14.797zm11.366-134.608c14.055 19.267 24.189 41.135 29.767 64.219-4.538-.149-34.208-.044-47.454-.025-7.743-9.584-17.972-16.613-29.464-20.399 9.549-8.869 46.195-42.794 47.151-43.795zm-170.328-79.662c0-6.64 5.401-12.042 12.041-12.042h23.212c6.64 0 12.042 5.402 12.042 12.042v31.094c0 6.64-5.402 12.042-12.042 12.042h-23.212c-6.64 0-12.042-5.402-12.042-12.042.001-15.207.001-17.789.001-31.094zm-112.148 51.573c7.637-7.679 15.973-14.757 24.776-21.038 4.957-3.537 11.697-2.927 16.007 1.065l22.438 20.812c4.194 3.892 10.975 1.811 12.366-3.635.659-2.578-.078-5.426-2.166-7.362l-18.656-17.304c13.468-6.737 27.659-11.735 42.382-14.924v21.908c0 14.911 12.13 27.042 27.041 27.042h23.212c14.911 0 27.042-12.131 27.042-27.042v-21.909c14.724 3.19 28.915 8.188 42.383 14.925l-81.03 75.159c-44.24-41.016-41.536-38.574-42.114-39.009-1.416-1.069-3.115-1.566-4.793-1.503-6.688.252-9.688 8.476-4.819 12.994 49.307 45.584 46.563 43.559 48.389 44.466 2.73 1.356 6.101.947 8.438-1.219 95.107-88.151 90.193-84.082 92.834-85.419 4.132-2.082 9.202-1.816 13.086.956 8.802 6.281 17.138 13.359 24.775 21.038 5.111 5.14 4.71 13.426-.461 18.218-13.173 12.218-88.814 82.373-98.46 91.319-19.23-23.044-54.645-22.893-73.747 0-107.084-99.373-100.362-92.01-101.975-96.905-1.355-4.392-.332-9.23 3.052-12.633zm-40.653 92.3c5.578-23.081 15.713-44.947 29.767-64.212.22.22 47.151 43.796 47.151 43.796-11.491 3.786-21.721 10.815-29.464 20.399-40.506.005-46.651-.01-47.454.017zm288.239 238.586c5.79-2.935 12.771-1.238 16.6 4.036 4.273 5.885 8.152 12.031 11.53 18.268 1.716 3.17 2.071 6.806 1 10.238-2.071 6.63-7.765 8.195-8.673 8.844-6.093-14.369-14.722-27.711-24.689-39.24zm-100.185-18.286c3.847 0 7.633 1.869 9.957 5.28 1.177 1.754 1.549 3.101 1.904 4.807.371 2.273.105 1.929.181 33.049 0 6.64-5.402 12.042-12.042 12.042h-23.212c-6.64 0-12.042-5.402-12.042-12.042.001-33.731-.297-32.279.718-35.15 1.174-3.322 3.841-5.889 6.703-7.061 3.481-1.448 4.366-.748 27.833-.925zm-50.253 15.085c.168 28.062-.396 28.881.55 33.494 2.526 12.311 13.444 21.599 26.491 21.599h23.212c14.911 0 27.042-12.131 27.042-27.042v-28.05c10.609-2.115 20.968-5.091 30.992-8.887 31.053 21.408 55.795 57.627 58.251 99.583h-50.097v-42.805c0-4.142-3.358-7.5-7.5-7.5s-7.5 3.358-7.5 7.5v42.805h-125.587v-42.805c0-4.142-3.358-7.5-7.5-7.5s-7.5 3.358-7.5 7.5v42.805h-50.091c.683-11.396 2.925-22.527 6.691-33.184 9.684-27.393 29.868-51.475 51.543-66.395 10.57 3.998 21.509 7.031 31.003 8.882zm-102.274 35.743c-1.072-3.433-.717-7.068 1-10.238 3.378-6.236 7.257-12.383 11.53-18.268 2.568-3.538 6.556-5.466 10.65-5.466 4.55 0 7.03 2.197 10.179 3.575-9.861 11.365-18.523 24.669-24.694 39.238-.896-.642-6.594-2.213-8.665-8.841z"/></g></g></svg>